<svg width="148" height="54" viewBox="0 0 148 54" fill="none" xmlns="http://www.w3.org/2000/svg">
<path d="M0 31.2518V26.0729H4.06567V5.17887H0V0H12.7274C16.8814 0 20.0412 1.0641 22.2066 3.19218C24.3721 5.32025 25.4548 8.48265 25.4548 12.6794V18.5726C25.4548 22.7692 24.3721 25.9315 22.2066 28.0596C20.0412 30.1878 16.8814 31.2518 12.7274 31.2518H0ZM9.89906 25.8943H12.8158C15.1727 25.8943 16.8962 25.2694 17.9862 24.0193C19.0764 22.7692 19.6214 21.0131 19.6214 18.7512V12.5008C19.6214 10.2089 19.0764 8.44545 17.9862 7.2103C16.8962 5.97503 15.1727 5.35745 12.8158 5.35745H9.89906V25.8943Z" fill="#081D4D"/>
<path d="M40.4802 31.8768C38.3 31.8768 36.3777 31.4081 34.7131 30.4705C33.0486 29.5329 31.7522 28.2085 30.8242 26.497C29.8961 24.7856 29.4321 22.7691 29.4321 20.4476V19.9118C29.4321 17.5902 29.8888 15.5737 30.8021 13.8624C31.7154 12.1509 32.997 10.8264 34.6469 9.88889C36.2967 8.95135 38.2117 8.48257 40.3918 8.48257C42.5425 8.48257 44.4133 8.96618 46.0043 9.93351C47.5951 10.9008 48.8326 12.2402 49.7164 13.9516C50.6003 15.6631 51.0422 17.6498 51.0422 19.9118V21.8315H35.0887C35.1477 23.3495 35.7074 24.5847 36.768 25.5371C37.8287 26.4896 39.1249 26.9658 40.6569 26.9658C42.2184 26.9658 43.3675 26.6236 44.104 25.9389C44.8405 25.2543 45.4003 24.4954 45.7832 23.662L50.3351 26.0729C49.9227 26.8468 49.326 27.6876 48.5453 28.5953C47.7646 29.5032 46.7261 30.277 45.4298 30.9169C44.1334 31.5569 42.4836 31.8768 40.4802 31.8768ZM35.1329 17.635H45.3855C45.2677 16.3551 44.7595 15.3282 43.8609 14.5544C42.9623 13.7805 41.7912 13.3936 40.3477 13.3936C38.8452 13.3936 37.6519 13.7805 36.768 14.5544C35.8842 15.3282 35.3392 16.3551 35.1329 17.635Z" fill="#081D4D"/>
<path d="M55.9917 31.2518V9.1076H61.4715V12.0096H62.2671C62.6206 11.2358 63.2834 10.4991 64.2558 9.79969C65.228 9.10018 66.701 8.75043 68.675 8.75043C70.3837 8.75043 71.8789 9.1448 73.1605 9.93354C74.4421 10.7223 75.4364 11.8086 76.1435 13.1927C76.8505 14.5767 77.204 16.1913 77.204 18.0368V31.2518H71.6358V18.4832C71.6358 16.8165 71.2308 15.5663 70.4206 14.733C69.6103 13.8996 68.454 13.4829 66.9514 13.4829C65.2426 13.4829 63.9169 14.0558 62.9742 15.2018C62.0313 16.3477 61.56 17.9474 61.56 20.0011V31.2518H55.9917Z" fill="#081D4D"/>
<path d="M90.992 31.2519C89.5484 31.2519 88.3773 30.7981 87.4787 29.8902C86.5802 28.9824 86.1308 27.7695 86.1308 26.2516V13.7509H80.651V9.10775H86.1308V2.23237H91.6991V9.10775H97.7093V13.7509H91.6991V25.2695C91.6991 26.1624 92.1115 26.6088 92.9364 26.6088H97.179V31.2519H90.992Z" fill="#081D4D"/>
<path d="M111.939 31.8768C109.759 31.8768 107.837 31.4081 106.172 30.4705C104.508 29.5329 103.211 28.2085 102.283 26.497C101.355 24.7856 100.891 22.7691 100.891 20.4476V19.9118C100.891 17.5902 101.348 15.5737 102.261 13.8624C103.174 12.1509 104.456 10.8264 106.106 9.88889C107.756 8.95135 109.671 8.48257 111.851 8.48257C114.001 8.48257 115.872 8.96618 117.463 9.93351C119.054 10.9008 120.291 12.2402 121.175 13.9516C122.059 15.6631 122.501 17.6498 122.501 19.9118V21.8315H106.548C106.607 23.3495 107.166 24.5847 108.227 25.5371C109.288 26.4896 110.584 26.9658 112.116 26.9658C113.677 26.9658 114.826 26.6236 115.563 25.9389C116.299 25.2543 116.859 24.4954 117.242 23.662L121.794 26.0729C121.382 26.8468 120.785 27.6876 120.004 28.5953C119.224 29.5032 118.185 30.277 116.889 30.9169C115.592 31.5569 113.943 31.8768 111.939 31.8768ZM106.592 17.635H116.844C116.727 16.3551 116.218 15.3282 115.32 14.5544C114.421 13.7805 113.25 13.3936 111.807 13.3936C110.304 13.3936 109.111 13.7805 108.227 14.5544C107.343 15.3282 106.798 16.3551 106.592 17.635Z" fill="#081D4D"/>
<path d="M137.438 31.8768C135.258 31.8768 133.336 31.4081 131.671 30.4705C130.006 29.5329 128.71 28.2085 127.782 26.497C126.854 24.7856 126.39 22.7691 126.39 20.4476V19.9118C126.39 17.5902 126.847 15.5737 127.76 13.8624C128.673 12.1509 129.955 10.8264 131.605 9.88889C133.254 8.95135 135.169 8.48257 137.35 8.48257C139.5 8.48257 141.371 8.96618 142.962 9.93351C144.553 10.9008 145.79 12.2402 146.674 13.9516C147.558 15.6631 148 17.6498 148 19.9118V21.8315H132.046C132.105 23.3495 132.665 24.5847 133.726 25.5371C134.786 26.4896 136.083 26.9658 137.615 26.9658C139.176 26.9658 140.325 26.6236 141.062 25.9389C141.798 25.2543 142.358 24.4954 142.741 23.662L147.293 26.0729C146.88 26.8468 146.284 27.6876 145.503 28.5953C144.722 29.5032 143.684 30.277 142.388 30.9169C141.091 31.5569 139.441 31.8768 137.438 31.8768ZM132.091 17.635H142.343C142.225 16.3551 141.717 15.3282 140.819 14.5544C139.92 13.7805 138.749 13.3936 137.305 13.3936C135.803 13.3936 134.61 13.7805 133.726 14.5544C132.842 15.3282 132.297 16.3551 132.091 17.635Z" fill="#081D4D"/>
<path d="M40.5223 51.6216C39.4086 51.6216 38.5226 51.3127 37.8644 50.6947C37.2062 50.0766 36.8771 49.1922 36.8771 48.0414V45.8932C36.8771 44.7424 37.2062 43.858 37.8644 43.24C38.5226 42.6219 39.4086 42.3129 40.5223 42.3129C41.6362 42.3129 42.5222 42.6219 43.1804 43.24C43.8385 43.858 44.1676 44.7424 44.1676 45.8932V48.0414C44.1676 49.1922 43.8385 50.0766 43.1804 50.6947C42.5222 51.3127 41.6362 51.6216 40.5223 51.6216ZM40.5223 50.1129C41.1468 50.1129 41.6319 49.9296 41.9779 49.563C42.3239 49.1964 42.4969 48.7063 42.4969 48.0925V45.842C42.4969 45.2283 42.3239 44.7381 41.9779 44.3715C41.6319 44.0051 41.1468 43.8218 40.5223 43.8218C39.9064 43.8218 39.4234 44.0051 39.0732 44.3715C38.7229 44.7381 38.5479 45.2283 38.5479 45.842V48.0925C38.5479 48.7063 38.7229 49.1964 39.0732 49.563C39.4234 49.9296 39.9064 50.1129 40.5223 50.1129Z" fill="#081D4D"/>
<path d="M48.2178 51.6216C47.7199 51.6216 47.2538 51.4959 46.8191 51.2444C46.3846 50.993 46.0365 50.6243 45.7749 50.1384C45.5134 49.6525 45.3826 49.0643 45.3826 48.3739V48.1693C45.3826 47.4787 45.5134 46.8906 45.7749 46.4047C46.0365 45.9188 46.3825 45.5501 46.8128 45.2986C47.2432 45.0472 47.7115 44.9214 48.2178 44.9214C48.5975 44.9214 48.9161 44.9662 49.1734 45.0556C49.4308 45.1452 49.6396 45.2581 49.7999 45.3946C49.9603 45.5309 50.0826 45.6758 50.167 45.8293H50.3948V42.492H51.9896V51.4427H50.4201V50.6755H50.1923C50.0488 50.9141 49.8273 51.1315 49.5278 51.3276C49.2282 51.5237 48.7916 51.6216 48.2178 51.6216ZM48.6987 50.2152C49.1881 50.2152 49.5974 50.0553 49.9265 49.7356C50.2555 49.416 50.4201 48.9492 50.4201 48.3355V48.2077C50.4201 47.5939 50.2576 47.1271 49.9328 46.8075C49.6079 46.4878 49.1965 46.328 48.6987 46.328C48.2093 46.328 47.8001 46.4878 47.471 46.8075C47.1419 47.1271 46.9774 47.5939 46.9774 48.2077V48.3355C46.9774 48.9492 47.1419 49.416 47.471 49.7356C47.8001 50.0553 48.2093 50.2152 48.6987 50.2152Z" fill="#081D4D"/>
<path d="M56.7486 51.6216C56.1242 51.6216 55.5631 51.4938 55.0653 51.2381C54.5674 50.9824 54.175 50.6116 53.8881 50.1256C53.6012 49.6398 53.4578 49.0559 53.4578 48.3739V48.1693C53.4578 47.4873 53.6012 46.9034 53.8881 46.4174C54.175 45.9316 54.5674 45.5608 55.0653 45.305C55.5631 45.0493 56.1242 44.9214 56.7486 44.9214C57.373 44.9214 57.9342 45.0493 58.432 45.305C58.9298 45.5608 59.3222 45.9316 59.6091 46.4174C59.8959 46.9034 60.0394 47.4873 60.0394 48.1693V48.3739C60.0394 49.0559 59.8959 49.6398 59.6091 50.1256C59.3222 50.6116 58.9298 50.9824 58.432 51.2381C57.9342 51.4938 57.373 51.6216 56.7486 51.6216ZM56.7486 50.1895C57.2381 50.1895 57.643 50.0298 57.9637 49.71C58.2844 49.3904 58.4447 48.9322 58.4447 48.3355V48.2077C58.4447 47.6109 58.2865 47.1527 57.97 46.833C57.6536 46.5134 57.2464 46.3535 56.7486 46.3535C56.2592 46.3535 55.8542 46.5134 55.5336 46.833C55.2129 47.1527 55.0526 47.6109 55.0526 48.2077V48.3355C55.0526 48.9322 55.2129 49.3904 55.5336 49.71C55.8542 50.0298 56.2592 50.1895 56.7486 50.1895Z" fill="#081D4D"/>
<path d="M61.5077 51.4429V45.1007H63.0772V45.9318H63.305C63.4063 45.7101 63.5961 45.4992 63.8745 45.2988C64.153 45.0984 64.5749 44.9984 65.1402 44.9984C65.6296 44.9984 66.0579 45.1113 66.4249 45.3372C66.792 45.5631 67.0768 45.8742 67.2792 46.2706C67.4817 46.667 67.583 47.1295 67.583 47.658V51.4429H65.9883V47.7858C65.9883 47.3084 65.8723 46.9505 65.6403 46.7117C65.4081 46.4731 65.077 46.3537 64.6466 46.3537C64.1572 46.3537 63.7775 46.5178 63.5074 46.846C63.2374 47.1742 63.1025 47.6324 63.1025 48.2206V51.4429H61.5077Z" fill="#081D4D"/>
<path d="M71.532 51.4426C71.1186 51.4426 70.7831 51.3127 70.5258 51.0526C70.2684 50.7926 70.1397 50.4453 70.1397 50.0105V46.4302H68.5702V45.1004H70.1397V43.1313H71.7345V45.1004H73.4559V46.4302H71.7345V49.7292C71.7345 49.9849 71.8527 50.1128 72.0889 50.1128H73.3039V51.4426H71.532Z" fill="#081D4D"/>
<path d="M77.6581 51.6216C77.0336 51.6216 76.4725 51.4938 75.9747 51.2381C75.4768 50.9824 75.0844 50.6116 74.7975 50.1256C74.5106 49.6398 74.3672 49.0559 74.3672 48.3739V48.1693C74.3672 47.4873 74.5106 46.9034 74.7975 46.4174C75.0844 45.9316 75.4768 45.5608 75.9747 45.305C76.4725 45.0493 77.0336 44.9214 77.6581 44.9214C78.2824 44.9214 78.8436 45.0493 79.3414 45.305C79.8392 45.5608 80.2316 45.9316 80.5185 46.4174C80.8054 46.9034 80.9488 47.4873 80.9488 48.1693V48.3739C80.9488 49.0559 80.8054 49.6398 80.5185 50.1256C80.2316 50.6116 79.8392 50.9824 79.3414 51.2381C78.8436 51.4938 78.2824 51.6216 77.6581 51.6216ZM77.6581 50.1895C78.1475 50.1895 78.5524 50.0298 78.8731 49.71C79.1938 49.3904 79.3541 48.9322 79.3541 48.3355V48.2077C79.3541 47.6109 79.1959 47.1527 78.8794 46.833C78.563 46.5134 78.1559 46.3535 77.6581 46.3535C77.1686 46.3535 76.7636 46.5134 76.443 46.833C76.1223 47.1527 75.962 47.6109 75.962 48.2077V48.3355C75.962 48.9322 76.1223 49.3904 76.443 49.71C76.7636 50.0298 77.1686 50.1895 77.6581 50.1895Z" fill="#081D4D"/>
<path d="M84.0118 42.492H82.417V51.4427H84.0118V42.492Z" fill="#081D4D"/>
<path d="M88.7708 51.6216C88.1464 51.6216 87.5853 51.4938 87.0875 51.2381C86.5897 50.9824 86.1972 50.6116 85.9103 50.1256C85.6234 49.6398 85.48 49.0559 85.48 48.3739V48.1693C85.48 47.4873 85.6234 46.9034 85.9103 46.4174C86.1972 45.9316 86.5897 45.5608 87.0875 45.305C87.5853 45.0493 88.1464 44.9214 88.7708 44.9214C89.3952 44.9214 89.9564 45.0493 90.4542 45.305C90.952 45.5608 91.3444 45.9316 91.6313 46.4174C91.9182 46.9034 92.0616 47.4873 92.0616 48.1693V48.3739C92.0616 49.0559 91.9182 49.6398 91.6313 50.1256C91.3444 50.6116 90.952 50.9824 90.4542 51.2381C89.9564 51.4938 89.3952 51.6216 88.7708 51.6216ZM88.7708 50.1895C89.2603 50.1895 89.6653 50.0298 89.9859 49.71C90.3066 49.3904 90.4669 48.9322 90.4669 48.3355V48.2077C90.4669 47.6109 90.3087 47.1527 89.9922 46.833C89.6758 46.5134 89.2687 46.3535 88.7708 46.3535C88.2814 46.3535 87.8764 46.5134 87.5558 46.833C87.2351 47.1527 87.0748 47.6109 87.0748 48.2077V48.3355C87.0748 48.9322 87.2351 49.3904 87.5558 49.71C87.8764 50.0298 88.2814 50.1895 88.7708 50.1895Z" fill="#081D4D"/>
<path d="M93.2261 48.2971V48.0925C93.2261 47.4276 93.3569 46.8586 93.6184 46.3855C93.88 45.9124 94.2281 45.5501 94.6626 45.2986C95.0973 45.0471 95.5719 44.9214 96.0866 44.9214C96.6604 44.9214 97.0949 45.0237 97.3902 45.2283C97.6856 45.4329 97.9007 45.646 98.0358 45.8677H98.2636V45.1005H99.8331V52.5679C99.8331 53.0027 99.7064 53.3501 99.4533 53.6101C99.2002 53.87 98.8627 54 98.4408 54H94.2387V52.5934H97.8838C98.1201 52.5934 98.2383 52.4656 98.2383 52.2099V50.5604H98.0105C97.9261 50.6968 97.808 50.8354 97.656 50.9759C97.5042 51.1166 97.3017 51.2339 97.0486 51.3276C96.7953 51.4214 96.4748 51.4682 96.0866 51.4682C95.5719 51.4682 95.0973 51.3425 94.6626 51.0911C94.2281 50.8396 93.88 50.4772 93.6184 50.0041C93.3569 49.5311 93.2261 48.962 93.2261 48.2971ZM96.5422 50.0617C97.0316 50.0617 97.4409 49.9041 97.77 49.5886C98.099 49.2732 98.2636 48.8299 98.2636 48.2588V48.1309C98.2636 47.5512 98.1011 47.1058 97.7763 46.7946C97.4514 46.4835 97.04 46.328 96.5422 46.328C96.0528 46.328 95.6436 46.4835 95.3145 46.7946C94.9854 47.1058 94.8209 47.5512 94.8209 48.1309V48.2588C94.8209 48.8299 94.9854 49.2732 95.3145 49.5886C95.6436 49.9041 96.0528 50.0617 96.5422 50.0617Z" fill="#081D4D"/>
<path d="M101.605 51.4427V45.1005H103.2V51.4427H101.605ZM102.402 44.3588C102.116 44.3588 101.873 44.265 101.675 44.0775C101.476 43.8899 101.377 43.6427 101.377 43.3358C101.377 43.029 101.476 42.7818 101.675 42.5943C101.873 42.4067 102.116 42.3129 102.402 42.3129C102.698 42.3129 102.942 42.4067 103.137 42.5943C103.331 42.7818 103.428 43.029 103.428 43.3358C103.428 43.6427 103.331 43.8899 103.137 44.0775C102.942 44.265 102.698 44.3588 102.402 44.3588Z" fill="#081D4D"/>
<path d="M106.921 51.6216C106.474 51.6216 106.073 51.5429 105.719 51.3851C105.364 51.2274 105.084 50.9972 104.877 50.6947C104.67 50.392 104.567 50.0233 104.567 49.5885C104.567 49.1538 104.67 48.7894 104.877 48.4954C105.084 48.2012 105.371 47.9796 105.738 47.8304C106.105 47.6812 106.524 47.6067 106.997 47.6067H108.718V47.2486C108.718 46.9503 108.625 46.7052 108.44 46.5134C108.254 46.3216 107.959 46.2257 107.554 46.2257C107.157 46.2257 106.862 46.3173 106.668 46.5006C106.474 46.6838 106.347 46.9204 106.288 47.2102L104.82 46.7115C104.921 46.3877 105.084 46.0914 105.307 45.8228C105.531 45.5544 105.83 45.337 106.206 45.1708C106.581 45.0045 107.039 44.9214 107.579 44.9214C108.406 44.9214 109.06 45.1303 109.541 45.5479C110.022 45.9656 110.262 46.571 110.262 47.3637V49.7292C110.262 49.9849 110.381 50.1129 110.617 50.1129H111.123V51.4427H110.06C109.748 51.4427 109.49 51.3659 109.288 51.2125C109.085 51.059 108.984 50.8544 108.984 50.5987V50.5859H108.744C108.71 50.6882 108.634 50.8225 108.516 50.9887C108.398 51.155 108.212 51.302 107.959 51.4299C107.706 51.5577 107.36 51.6216 106.921 51.6216ZM107.199 50.3175C107.647 50.3175 108.012 50.1916 108.294 49.9402C108.577 49.6887 108.718 49.3542 108.718 48.9365V48.8086H107.111C106.816 48.8086 106.584 48.8726 106.415 49.0004C106.246 49.1282 106.162 49.3073 106.162 49.5375C106.162 49.7676 106.25 49.9551 106.427 50.1001C106.605 50.245 106.862 50.3175 107.199 50.3175Z" fill="#081D4D"/>
</svg>
