<svg width="104" height="38" viewBox="0 0 104 38" fill="none" xmlns="http://www.w3.org/2000/svg">
<path d="M0 21.992V18.3476H2.85695V3.64439H0V0H8.9436C11.8626 0 14.083 0.74881 15.6047 2.24635C17.1263 3.74388 17.8871 5.96927 17.8871 8.92251V13.0696C17.8871 16.0227 17.1263 18.2481 15.6047 19.7457C14.083 21.2433 11.8626 21.992 8.9436 21.992H0ZM6.9561 18.2219H9.00567C10.6619 18.2219 11.873 17.7821 12.639 16.9024C13.405 16.0227 13.788 14.787 13.788 13.1953V8.79684C13.788 7.18407 13.405 5.94309 12.639 5.07391C11.873 4.20465 10.6619 3.77006 9.00567 3.77006H6.9561V18.2219Z" fill="#081D4D"/>
<path d="M28.4455 22.4319C26.9135 22.4319 25.5627 22.102 24.393 21.4422C23.2233 20.7824 22.3124 19.8504 21.6602 18.6461C21.0081 17.4417 20.682 16.0227 20.682 14.389V14.012C20.682 12.3783 21.0029 10.9593 21.6448 9.75502C22.2865 8.55066 23.187 7.61861 24.3465 6.95885C25.5058 6.2991 26.8515 5.96922 28.3835 5.96922C29.8947 5.96922 31.2094 6.30953 32.3273 6.99025C33.4452 7.67096 34.3148 8.61346 34.9359 9.81781C35.557 11.0222 35.8675 12.4202 35.8675 14.012V15.3629H24.657C24.6984 16.4311 25.0917 17.3004 25.837 17.9706C26.5823 18.6408 27.4932 18.9759 28.5697 18.9759C29.667 18.9759 30.4745 18.7351 30.992 18.2533C31.5096 17.7716 31.9029 17.2375 32.172 16.651L35.3706 18.3476C35.0808 18.8922 34.6615 19.4838 34.1129 20.1226C33.5643 20.7615 32.8345 21.306 31.9237 21.7564C31.0127 22.2067 29.8534 22.4319 28.4455 22.4319ZM24.688 12.4098H31.8925C31.8097 11.5091 31.4527 10.7865 30.8212 10.242C30.1897 9.69736 29.3668 9.42514 28.3524 9.42514C27.2966 9.42514 26.4581 9.69736 25.837 10.242C25.2159 10.7865 24.8329 11.5091 24.688 12.4098Z" fill="#081D4D"/>
<path d="M39.3455 21.992V6.40905H43.1962V8.45119H43.7552C44.0037 7.90667 44.4694 7.38825 45.1527 6.89608C45.8359 6.40383 46.871 6.15771 48.2581 6.15771C49.4588 6.15771 50.5095 6.43523 51.4101 6.99027C52.3106 7.54531 53.0094 8.30978 53.5062 9.28375C54.003 10.2576 54.2515 11.3939 54.2515 12.6925V21.992H50.3387V13.0067C50.3387 11.8338 50.0541 10.9541 49.4847 10.3677C48.9154 9.78122 48.1028 9.48796 47.0469 9.48796C45.8462 9.48796 44.9146 9.89115 44.2521 10.6975C43.5896 11.5039 43.2584 12.6297 43.2584 14.0748V21.992H39.3455Z" fill="#081D4D"/>
<path d="M63.9403 21.9921C62.9259 21.9921 62.1029 21.6727 61.4715 21.0338C60.8401 20.3951 60.5244 19.5415 60.5244 18.4734V9.67653H56.6737V6.40916H60.5244V1.57093H64.4372V6.40916H68.6606V9.67653H64.4372V17.7822C64.4372 18.4106 64.727 18.7247 65.3067 18.7247H68.2879V21.9921H63.9403Z" fill="#081D4D"/>
<path d="M78.6599 22.4319C77.1279 22.4319 75.7771 22.102 74.6074 21.4422C73.4377 20.7824 72.5268 19.8504 71.8746 18.6461C71.2225 17.4417 70.8964 16.0227 70.8964 14.389V14.012C70.8964 12.3783 71.2173 10.9593 71.8591 9.75502C72.5009 8.55066 73.4015 7.61861 74.5609 6.95885C75.7202 6.2991 77.0659 5.96922 78.5978 5.96922C80.1091 5.96922 81.4238 6.30953 82.5417 6.99025C83.6596 7.67096 84.5291 8.61346 85.1502 9.81781C85.7713 11.0222 86.0818 12.4202 86.0818 14.012V15.3629H74.8714C74.9128 16.4311 75.3061 17.3004 76.0514 17.9706C76.7967 18.6408 77.7076 18.9759 78.7841 18.9759C79.8814 18.9759 80.6888 18.7351 81.2064 18.2533C81.7239 17.7716 82.1173 17.2375 82.3864 16.651L85.585 18.3476C85.2952 18.8922 84.8759 19.4838 84.3273 20.1226C83.7787 20.7615 83.0489 21.306 82.138 21.7564C81.2271 22.2067 80.0678 22.4319 78.6599 22.4319ZM74.9024 12.4098H82.1069C82.0241 11.5091 81.667 10.7865 81.0355 10.242C80.4041 9.69736 79.5812 9.42514 78.5668 9.42514C77.5109 9.42514 76.6725 9.69736 76.0514 10.242C75.4303 10.7865 75.0473 11.5091 74.9024 12.4098Z" fill="#081D4D"/>
<path d="M96.5781 22.4319C95.0461 22.4319 93.6952 22.102 92.5255 21.4422C91.3558 20.7824 90.4449 19.8504 89.7928 18.6461C89.1407 17.4417 88.8145 16.0227 88.8145 14.389V14.012C88.8145 12.3783 89.1354 10.9593 89.7772 9.75502C90.419 8.55066 91.3196 7.61861 92.4789 6.95885C93.6382 6.2991 94.9839 5.96922 96.5159 5.96922C98.0273 5.96922 99.3418 6.30953 100.46 6.99025C101.578 7.67096 102.447 8.61346 103.068 9.81781C103.689 11.0222 104 12.4202 104 14.012V15.3629H92.7894C92.8309 16.4311 93.2242 17.3004 93.9695 17.9706C94.7148 18.6408 95.6257 18.9759 96.7023 18.9759C97.7995 18.9759 98.6069 18.7351 99.1245 18.2533C99.642 17.7716 100.035 17.2375 100.305 16.651L103.503 18.3476C103.213 18.8922 102.794 19.4838 102.245 20.1226C101.697 20.7615 100.967 21.306 100.056 21.7564C99.1452 22.2067 97.9858 22.4319 96.5781 22.4319ZM92.8205 12.4098H100.025C99.9422 11.5091 99.5851 10.7865 98.9537 10.242C98.3223 9.69736 97.4994 9.42514 96.4849 9.42514C95.4291 9.42514 94.5906 9.69736 93.9695 10.242C93.3484 10.7865 92.9654 11.5091 92.8205 12.4098Z" fill="#081D4D"/>
<path d="M28.4752 36.3263C27.6925 36.3263 27.0699 36.1089 26.6074 35.674C26.1449 35.2391 25.9136 34.6167 25.9136 33.8069V32.2952C25.9136 31.4854 26.1449 30.8631 26.6074 30.4281C27.0699 29.9932 27.6925 29.7758 28.4752 29.7758C29.2579 29.7758 29.8805 29.9932 30.343 30.4281C30.8054 30.8631 31.0367 31.4854 31.0367 32.2952V33.8069C31.0367 34.6167 30.8054 35.2391 30.343 35.674C29.8805 36.1089 29.2579 36.3263 28.4752 36.3263ZM28.4752 35.2646C28.914 35.2646 29.2549 35.1356 29.498 34.8777C29.7411 34.6197 29.8627 34.2748 29.8627 33.8429V32.2592C29.8627 31.8273 29.7411 31.4824 29.498 31.2244C29.2549 30.9665 28.914 30.8375 28.4752 30.8375C28.0423 30.8375 27.7029 30.9665 27.4568 31.2244C27.2107 31.4824 27.0877 31.8273 27.0877 32.2592V33.8429C27.0877 34.2748 27.2107 34.6197 27.4568 34.8777C27.7029 35.1356 28.0423 35.2646 28.4752 35.2646Z" fill="#081D4D"/>
<path d="M33.8828 36.3263C33.5329 36.3263 33.2054 36.2379 32.8999 36.0609C32.5946 35.8839 32.35 35.6245 32.1662 35.2826C31.9824 34.9406 31.8905 34.5267 31.8905 34.0409V33.8969C31.8905 33.4109 31.9824 32.9971 32.1662 32.6552C32.35 32.3132 32.5931 32.0537 32.8955 31.8768C33.1979 31.6998 33.527 31.6114 33.8828 31.6114C34.1496 31.6114 34.3734 31.6429 34.5542 31.7058C34.7351 31.7689 34.8819 31.8483 34.9945 31.9443C35.1072 32.0402 35.1932 32.1422 35.2525 32.2503H35.4126V29.9018H36.5332V36.2004H35.4303V35.6605H35.2702C35.1694 35.8284 35.0138 35.9815 34.8033 36.1194C34.5928 36.2574 34.286 36.3263 33.8828 36.3263ZM34.2207 35.3366C34.5646 35.3366 34.8522 35.2241 35.0835 34.9991C35.3147 34.7742 35.4303 34.4457 35.4303 34.0139V33.9239C35.4303 33.492 35.3162 33.1635 35.0879 32.9386C34.8596 32.7137 34.5705 32.6012 34.2207 32.6012C33.8768 32.6012 33.5892 32.7137 33.358 32.9386C33.1268 33.1635 33.0111 33.492 33.0111 33.9239V34.0139C33.0111 34.4457 33.1268 34.7742 33.358 34.9991C33.5892 35.2241 33.8768 35.3366 34.2207 35.3366Z" fill="#081D4D"/>
<path d="M39.8774 36.3263C39.4386 36.3263 39.0443 36.2364 38.6945 36.0564C38.3446 35.8765 38.0689 35.6155 37.8673 35.2736C37.6657 34.9317 37.5649 34.5208 37.5649 34.0409V33.8969C37.5649 33.417 37.6657 33.0061 37.8673 32.6641C38.0689 32.3222 38.3446 32.0613 38.6945 31.8813C39.0443 31.7013 39.4386 31.6114 39.8774 31.6114C40.3162 31.6114 40.7105 31.7013 41.0603 31.8813C41.4101 32.0613 41.6858 32.3222 41.8874 32.6641C42.089 33.0061 42.1898 33.417 42.1898 33.8969V34.0409C42.1898 34.5208 42.089 34.9317 41.8874 35.2736C41.6858 35.6155 41.4101 35.8765 41.0603 36.0564C40.7105 36.2364 40.3162 36.3263 39.8774 36.3263ZM39.8774 35.3186C40.2213 35.3186 40.5059 35.2061 40.7312 34.9811C40.9566 34.7562 41.0693 34.4338 41.0693 34.0139V33.9239C41.0693 33.504 40.9581 33.1816 40.7357 32.9566C40.5133 32.7316 40.2272 32.6191 39.8774 32.6191C39.5335 32.6191 39.2489 32.7316 39.0236 32.9566C38.7983 33.1816 38.6856 33.504 38.6856 33.9239V34.0139C38.6856 34.4338 38.7983 34.7562 39.0236 34.9811C39.2489 35.2061 39.5335 35.3186 39.8774 35.3186Z" fill="#081D4D"/>
<path d="M43.2216 36.2005V31.7375H44.3245V32.3224H44.4846C44.5558 32.1664 44.6892 32.0179 44.8848 31.8769C45.0805 31.7359 45.377 31.6655 45.7742 31.6655C46.1181 31.6655 46.4191 31.745 46.677 31.9039C46.9349 32.0629 47.1351 32.2819 47.2773 32.5608C47.4196 32.8397 47.4908 33.1652 47.4908 33.5371V36.2005H46.3702V33.6271C46.3702 33.2911 46.2886 33.0392 46.1256 32.8712C45.9625 32.7033 45.7297 32.6193 45.4273 32.6193C45.0834 32.6193 44.8167 32.7348 44.6268 32.9657C44.4371 33.1967 44.3423 33.5191 44.3423 33.933V36.2005H43.2216Z" fill="#081D4D"/>
<path d="M50.2657 36.2004C49.9752 36.2004 49.7394 36.1089 49.5586 35.9259C49.3778 35.7429 49.2874 35.4985 49.2874 35.1926V32.6731H48.1845V31.7373H49.2874V30.3516H50.408V31.7373H51.6176V32.6731H50.408V34.9946C50.408 35.1745 50.4911 35.2646 50.6571 35.2646H51.5109V36.2004H50.2657Z" fill="#081D4D"/>
<path d="M54.5705 36.3263C54.1317 36.3263 53.7374 36.2364 53.3876 36.0564C53.0377 35.8765 52.762 35.6155 52.5604 35.2736C52.3588 34.9317 52.258 34.5208 52.258 34.0409V33.8969C52.258 33.417 52.3588 33.0061 52.5604 32.6641C52.762 32.3222 53.0377 32.0613 53.3876 31.8813C53.7374 31.7013 54.1317 31.6114 54.5705 31.6114C55.0093 31.6114 55.4036 31.7013 55.7534 31.8813C56.1032 32.0613 56.379 32.3222 56.5806 32.6641C56.7822 33.0061 56.883 33.417 56.883 33.8969V34.0409C56.883 34.5208 56.7822 34.9317 56.5806 35.2736C56.379 35.6155 56.1032 35.8765 55.7534 36.0564C55.4036 36.2364 55.0093 36.3263 54.5705 36.3263ZM54.5705 35.3186C54.9144 35.3186 55.199 35.2061 55.4243 34.9811C55.6497 34.7562 55.7624 34.4338 55.7624 34.0139V33.9239C55.7624 33.504 55.6512 33.1816 55.4288 32.9566C55.2064 32.7316 54.9203 32.6191 54.5705 32.6191C54.2266 32.6191 53.942 32.7316 53.7167 32.9566C53.4914 33.1816 53.3787 33.504 53.3787 33.9239V34.0139C53.3787 34.4338 53.4914 34.7562 53.7167 34.9811C53.942 35.2061 54.2266 35.3186 54.5705 35.3186Z" fill="#081D4D"/>
<path d="M59.0353 29.9018H57.9146V36.2004H59.0353V29.9018Z" fill="#081D4D"/>
<path d="M62.3795 36.3263C61.9407 36.3263 61.5464 36.2364 61.1966 36.0564C60.8468 35.8765 60.571 35.6155 60.3694 35.2736C60.1678 34.9317 60.067 34.5208 60.067 34.0409V33.8969C60.067 33.417 60.1678 33.0061 60.3694 32.6641C60.571 32.3222 60.8468 32.0613 61.1966 31.8813C61.5464 31.7013 61.9407 31.6114 62.3795 31.6114C62.8182 31.6114 63.2126 31.7013 63.5624 31.8813C63.9122 32.0613 64.1879 32.3222 64.3895 32.6641C64.5911 33.0061 64.6919 33.417 64.6919 33.8969V34.0409C64.6919 34.5208 64.5911 34.9317 64.3895 35.2736C64.1879 35.6155 63.9122 35.8765 63.5624 36.0564C63.2126 36.2364 62.8182 36.3263 62.3795 36.3263ZM62.3795 35.3186C62.7234 35.3186 63.0081 35.2061 63.2333 34.9811C63.4587 34.7562 63.5713 34.4338 63.5713 34.0139V33.9239C63.5713 33.504 63.4601 33.1816 63.2377 32.9566C63.0154 32.7316 62.7293 32.6191 62.3795 32.6191C62.0356 32.6191 61.751 32.7316 61.5257 32.9566C61.3004 33.1816 61.1877 33.504 61.1877 33.9239V34.0139C61.1877 34.4338 61.3004 34.7562 61.5257 34.9811C61.751 35.2061 62.0356 35.3186 62.3795 35.3186Z" fill="#081D4D"/>
<path d="M65.5102 33.9869V33.8429C65.5102 33.375 65.6022 32.9745 65.7859 32.6417C65.9697 32.3087 66.2143 32.0537 66.5197 31.8768C66.8251 31.6998 67.1586 31.6114 67.5203 31.6114C67.9235 31.6114 68.2289 31.6834 68.4364 31.8273C68.6439 31.9713 68.7951 32.1213 68.89 32.2773H69.0501V31.7374H70.153V36.9922C70.153 37.2982 70.064 37.5426 69.8861 37.7256C69.7083 37.9085 69.4711 38 69.1746 38H66.2218V37.0102H68.7832C68.9493 37.0102 69.0323 36.9202 69.0323 36.7403V35.5795H68.8722C68.813 35.6755 68.7299 35.773 68.6231 35.8719C68.5164 35.9709 68.3741 36.0535 68.1963 36.1194C68.0183 36.1854 67.7931 36.2184 67.5203 36.2184C67.1586 36.2184 66.8251 36.1299 66.5197 35.953C66.2143 35.776 65.9697 35.521 65.7859 35.1881C65.6022 34.8552 65.5102 34.4548 65.5102 33.9869ZM67.8405 35.2286C68.1844 35.2286 68.472 35.1177 68.7032 34.8956C68.9345 34.6737 69.0501 34.3618 69.0501 33.9599V33.8699C69.0501 33.462 68.9359 33.1485 68.7076 32.9296C68.4793 32.7106 68.1903 32.6012 67.8405 32.6012C67.4966 32.6012 67.209 32.7106 66.9778 32.9296C66.7465 33.1485 66.6309 33.462 66.6309 33.8699V33.9599C66.6309 34.3618 66.7465 34.6737 66.9778 34.8956C67.209 35.1177 67.4966 35.2286 67.8405 35.2286Z" fill="#081D4D"/>
<path d="M71.3981 36.2004V31.7374H72.5188V36.2004H71.3981ZM71.9585 31.2155C71.7569 31.2155 71.5864 31.1494 71.447 31.0175C71.3077 30.8855 71.238 30.7115 71.238 30.4956C71.238 30.2797 71.3077 30.1057 71.447 29.9737C71.5864 29.8418 71.7569 29.7758 71.9585 29.7758C72.1659 29.7758 72.3379 29.8418 72.4743 29.9737C72.6106 30.1057 72.6789 30.2797 72.6789 30.4956C72.6789 30.7115 72.6106 30.8855 72.4743 31.0175C72.3379 31.1494 72.1659 31.2155 71.9585 31.2155Z" fill="#081D4D"/>
<path d="M75.1337 36.3263C74.8195 36.3263 74.5378 36.2709 74.2888 36.1599C74.0397 36.0489 73.8426 35.8869 73.6973 35.674C73.5521 35.461 73.4794 35.2016 73.4794 34.8956C73.4794 34.5897 73.5521 34.3333 73.6973 34.1264C73.8426 33.9193 74.0442 33.7634 74.3021 33.6584C74.56 33.5534 74.855 33.501 75.1871 33.501H76.3967V33.249C76.3967 33.0391 76.3314 32.8666 76.201 32.7316C76.0705 32.5967 75.863 32.5292 75.5784 32.5292C75.2997 32.5292 75.0922 32.5936 74.9558 32.7226C74.8195 32.8516 74.7305 33.018 74.689 33.222L73.6573 32.8711C73.7284 32.6432 73.8426 32.4347 73.9997 32.2457C74.1569 32.0568 74.3673 31.9038 74.6311 31.7868C74.8951 31.6699 75.2167 31.6114 75.5962 31.6114C76.1773 31.6114 76.6368 31.7583 76.9748 32.0523C77.3128 32.3462 77.4817 32.7722 77.4817 33.33V34.9946C77.4817 35.1746 77.5648 35.2646 77.7308 35.2646H78.0865V36.2004H77.3394C77.12 36.2004 76.9392 36.1464 76.7969 36.0384C76.6546 35.9304 76.5834 35.7864 76.5834 35.6065V35.5975H76.4144C76.3908 35.6695 76.3374 35.764 76.2544 35.881C76.1713 35.9979 76.0409 36.1014 75.863 36.1914C75.6852 36.2813 75.4421 36.3263 75.1337 36.3263ZM75.3294 35.4086C75.6437 35.4086 75.9001 35.32 76.0987 35.1431C76.2973 34.9661 76.3967 34.7307 76.3967 34.4368V34.3468H75.2672C75.0596 34.3468 74.8965 34.3918 74.778 34.4818C74.6593 34.5717 74.6 34.6977 74.6 34.8597C74.6 35.0216 74.6623 35.1536 74.7868 35.2556C74.9114 35.3576 75.0922 35.4086 75.3294 35.4086Z" fill="#081D4D"/>
</svg>
