<svg width="192" height="70" viewBox="0 0 192 70" fill="none" xmlns="http://www.w3.org/2000/svg">
<path d="M0 40.5116V33.7982H5.27438V6.71335H0V0H16.5113C21.9002 0 25.9994 1.37939 28.8086 4.13801C31.6178 6.89663 33.0224 10.996 33.0224 16.4362V24.0755C33.0224 29.5156 31.6178 33.615 28.8086 36.3736C25.9994 39.1324 21.9002 40.5116 16.5113 40.5116H0ZM12.842 33.5667H16.6259C19.6835 33.5667 21.9194 32.7566 23.3335 31.1361C24.7477 29.5156 25.4547 27.2392 25.4547 24.307V16.2047C25.4547 13.2338 24.7477 10.9478 23.3335 9.34668C21.9194 7.74541 19.6835 6.94485 16.6259 6.94485H12.842V33.5667Z" fill="#081D4D"/>
<path d="M52.5148 41.3218C49.6865 41.3218 47.1927 40.7142 45.0332 39.4988C42.8738 38.2833 41.192 36.5665 39.9881 34.348C38.7842 32.1294 38.1822 29.5155 38.1822 26.5061V25.8116C38.1822 22.8021 38.7747 20.1882 39.9595 17.9698C41.1443 15.7512 42.8069 14.0343 44.9473 12.8189C47.0876 11.6036 49.5719 10.9959 52.4002 10.9959C55.1902 10.9959 57.6173 11.6228 59.6812 12.8768C61.745 14.1307 63.3503 15.8669 64.497 18.0854C65.6436 20.304 66.2169 22.8793 66.2169 25.8116V28.3001H45.5205C45.597 30.2678 46.3231 31.8691 47.6991 33.1037C49.075 34.3384 50.7567 34.9557 52.7441 34.9557C54.7698 34.9557 56.2605 34.512 57.2159 33.6245C58.1715 32.7371 58.8977 31.7533 59.3945 30.673L65.2995 33.7982C64.7645 34.8014 63.9905 35.8913 62.9777 37.068C61.9648 38.2449 60.6176 39.2479 58.936 40.0775C57.2542 40.9071 55.1139 41.3218 52.5148 41.3218ZM45.5778 22.8601H58.8785C58.7257 21.201 58.0664 19.8698 56.9006 18.8668C55.7349 17.8636 54.2156 17.3621 52.3429 17.3621C50.3937 17.3621 48.8457 17.8636 47.6991 18.8668C46.5524 19.8698 45.8454 21.201 45.5778 22.8601Z" fill="#081D4D"/>
<path d="M72.6379 40.5115V11.8061H79.7469V15.568H80.7789C81.2376 14.5649 82.0974 13.6099 83.3588 12.7033C84.62 11.7965 86.531 11.3431 89.0919 11.3431C91.3086 11.3431 93.2483 11.8544 94.9109 12.8768C96.5735 13.8993 97.8634 15.3075 98.7808 17.1017C99.6979 18.8957 100.157 20.9888 100.157 23.381V40.5115H92.933V23.9597C92.933 21.7991 92.4075 20.1786 91.3564 19.0983C90.3053 18.018 88.8052 17.4778 86.8559 17.4778C84.6391 17.4778 82.9192 18.2205 81.6962 19.706C80.4731 21.1914 79.8616 23.2652 79.8616 25.9273V40.5115H72.6379Z" fill="#081D4D"/>
<path d="M118.044 40.5117C116.171 40.5117 114.652 39.9234 113.486 38.7466C112.32 37.5698 111.737 35.9976 111.737 34.0299V17.8252H104.628V11.8063H111.737V2.89382H118.961V11.8063H126.758V17.8252H118.961V32.7567C118.961 33.9142 119.496 34.4929 120.566 34.4929H126.07V40.5117H118.044Z" fill="#081D4D"/>
<path d="M145.218 41.3218C142.39 41.3218 139.896 40.7142 137.737 39.4988C135.577 38.2833 133.896 36.5665 132.692 34.348C131.488 32.1294 130.886 29.5155 130.886 26.5061V25.8116C130.886 22.8021 131.478 20.1882 132.663 17.9698C133.848 15.7512 135.51 14.0343 137.651 12.8189C139.791 11.6036 142.275 10.9959 145.104 10.9959C147.894 10.9959 150.321 11.6228 152.385 12.8768C154.449 14.1307 156.054 15.8669 157.2 18.0854C158.347 20.304 158.92 22.8793 158.92 25.8116V28.3001H138.224C138.301 30.2678 139.027 31.8691 140.403 33.1037C141.779 34.3384 143.46 34.9557 145.448 34.9557C147.473 34.9557 148.964 34.512 149.919 33.6245C150.875 32.7371 151.601 31.7533 152.098 30.673L158.003 33.7982C157.468 34.8014 156.694 35.8913 155.681 37.068C154.668 38.2449 153.321 39.2479 151.639 40.0775C149.958 40.9071 147.817 41.3218 145.218 41.3218ZM138.281 22.8601H151.582C151.429 21.201 150.77 19.8698 149.604 18.8668C148.438 17.8636 146.919 17.3621 145.046 17.3621C143.097 17.3621 141.549 17.8636 140.403 18.8668C139.256 19.8698 138.549 21.201 138.281 22.8601Z" fill="#081D4D"/>
<path d="M178.298 41.3218C175.47 41.3218 172.976 40.7142 170.816 39.4988C168.657 38.2833 166.975 36.5665 165.771 34.348C164.567 32.1294 163.965 29.5155 163.965 26.5061V25.8116C163.965 22.8021 164.558 20.1882 165.743 17.9698C166.927 15.7512 168.59 14.0343 170.73 12.8189C172.871 11.6036 175.355 10.9959 178.183 10.9959C180.973 10.9959 183.4 11.6228 185.464 12.8768C187.528 14.1307 189.133 15.8669 190.28 18.0854C191.427 20.304 192 22.8793 192 25.8116V28.3001H171.304C171.38 30.2678 172.106 31.8691 173.482 33.1037C174.858 34.3384 176.54 34.9557 178.527 34.9557C180.553 34.9557 182.044 34.512 182.999 33.6245C183.954 32.7371 184.681 31.7533 185.178 30.673L191.083 33.7982C190.548 34.8014 189.774 35.8913 188.761 37.068C187.748 38.2449 186.401 39.2479 184.719 40.0775C183.037 40.9071 180.897 41.3218 178.298 41.3218ZM171.361 22.8601H184.662C184.509 21.201 183.849 19.8698 182.684 18.8668C181.518 17.8636 179.999 17.3621 178.126 17.3621C176.177 17.3621 174.629 17.8636 173.482 18.8668C172.336 19.8698 171.628 21.201 171.361 22.8601Z" fill="#081D4D"/>
<path d="M52.5695 66.9169C51.1246 66.9169 49.9752 66.5165 49.1214 65.7153C48.2675 64.9141 47.8405 63.7676 47.8405 62.2759V59.4912C47.8405 57.9994 48.2675 56.853 49.1214 56.0518C49.9752 55.2507 51.1246 54.8501 52.5695 54.8501C54.0146 54.8501 55.1639 55.2507 56.0178 56.0518C56.8716 56.853 57.2985 57.9994 57.2985 59.4912V62.2759C57.2985 63.7676 56.8716 64.9141 56.0178 65.7153C55.1639 66.5165 54.0146 66.9169 52.5695 66.9169ZM52.5695 64.9611C53.3796 64.9611 54.009 64.7235 54.4578 64.2483C54.9066 63.7731 55.1311 63.1378 55.1311 62.3422V59.4248C55.1311 58.6293 54.9066 57.9939 54.4578 57.5187C54.009 57.0436 53.3796 56.806 52.5695 56.806C51.7704 56.806 51.1438 57.0436 50.6895 57.5187C50.2351 57.9939 50.008 58.6293 50.008 59.4248V62.3422C50.008 63.1378 50.2351 63.7731 50.6895 64.2483C51.1438 64.7235 51.7704 64.9611 52.5695 64.9611Z" fill="#081D4D"/>
<path d="M62.5528 66.9169C61.9069 66.9169 61.3022 66.7539 60.7383 66.428C60.1746 66.102 59.7231 65.6241 59.3837 64.9943C59.0445 64.3643 58.8747 63.6019 58.8747 62.7069V62.4417C58.8747 61.5465 59.0445 60.7841 59.3837 60.1543C59.7231 59.5243 60.1719 59.0464 60.7302 58.7204C61.2884 58.3945 61.896 58.2315 62.5528 58.2315C63.0454 58.2315 63.4587 58.2895 63.7925 58.4054C64.1264 58.5216 64.3973 58.6679 64.6053 58.8448C64.8133 59.0215 64.972 59.2094 65.0815 59.4084H65.377V55.0822H67.446V66.685H65.4098V65.6904H65.1143C64.9282 65.9998 64.6408 66.2816 64.2523 66.5357C63.8637 66.79 63.2972 66.9169 62.5528 66.9169ZM63.1767 65.0938C63.8116 65.0938 64.3426 64.8865 64.7695 64.4721C65.1964 64.0577 65.4098 63.4527 65.4098 62.6571V62.4914C65.4098 61.6957 65.1991 61.0907 64.7776 60.6763C64.3562 60.262 63.8225 60.0548 63.1767 60.0548C62.5418 60.0548 62.0109 60.262 61.584 60.6763C61.1571 61.0907 60.9436 61.6957 60.9436 62.4914V62.6571C60.9436 63.4527 61.1571 64.0577 61.584 64.4721C62.0109 64.8865 62.5418 65.0938 63.1767 65.0938Z" fill="#081D4D"/>
<path d="M73.6199 66.9169C72.8097 66.9169 72.0818 66.7512 71.436 66.4197C70.7901 66.0883 70.2811 65.6076 69.9089 64.9776C69.5367 64.3478 69.3506 63.5909 69.3506 62.7069V62.4417C69.3506 61.5576 69.5367 60.8007 69.9089 60.1708C70.2811 59.541 70.7901 59.0603 71.436 58.7286C72.0818 58.3972 72.8097 58.2315 73.6199 58.2315C74.4298 58.2315 75.1579 58.3972 75.8037 58.7286C76.4495 59.0603 76.9585 59.541 77.3307 60.1708C77.7028 60.8007 77.8889 61.5576 77.8889 62.4417V62.7069C77.8889 63.5909 77.7028 64.3478 77.3307 64.9776C76.9585 65.6076 76.4495 66.0883 75.8037 66.4197C75.1579 66.7512 74.4298 66.9169 73.6199 66.9169ZM73.6199 65.0605C74.2548 65.0605 74.7801 64.8534 75.1961 64.4389C75.6121 64.0246 75.8202 63.4307 75.8202 62.6571V62.4914C75.8202 61.7179 75.6149 61.1239 75.2043 60.7094C74.7939 60.2951 74.2657 60.0879 73.6199 60.0879C72.9849 60.0879 72.4595 60.2951 72.0436 60.7094C71.6276 61.1239 71.4196 61.7179 71.4196 62.4914V62.6571C71.4196 63.4307 71.6276 64.0246 72.0436 64.4389C72.4595 64.8534 72.9849 65.0605 73.6199 65.0605Z" fill="#081D4D"/>
<path d="M79.7938 66.6852V58.4638H81.8299V59.5412H82.1254C82.2568 59.2539 82.5031 58.9804 82.8642 58.7207C83.2255 58.4609 83.7729 58.3312 84.5062 58.3312C85.1412 58.3312 85.6967 58.4776 86.1729 58.7704C86.6491 59.0633 87.0186 59.4666 87.2811 59.9804C87.5439 60.4942 87.6753 61.0938 87.6753 61.7788V66.6852H85.6065V61.9446C85.6065 61.3258 85.4559 60.8617 85.1549 60.5522C84.8538 60.2429 84.4241 60.0882 83.8659 60.0882C83.2309 60.0882 82.7384 60.3009 82.388 60.7263C82.0378 61.1518 81.8627 61.7457 81.8627 62.5081V66.6852H79.7938Z" fill="#081D4D"/>
<path d="M92.7983 66.6849C92.2619 66.6849 91.8267 66.5164 91.4929 66.1793C91.159 65.8422 90.9921 65.392 90.9921 64.8285V60.1873H88.9559V58.4635H90.9921V55.9109H93.061V58.4635H95.2941V60.1873H93.061V64.4638C93.061 64.7952 93.2143 64.9611 93.5207 64.9611H95.097V66.6849H92.7983Z" fill="#081D4D"/>
<path d="M100.746 66.9169C99.9355 66.9169 99.2076 66.7512 98.5618 66.4197C97.9158 66.0883 97.4068 65.6076 97.0346 64.9776C96.6624 64.3478 96.4763 63.5909 96.4763 62.7069V62.4417C96.4763 61.5576 96.6624 60.8007 97.0346 60.1708C97.4068 59.541 97.9158 59.0603 98.5618 58.7286C99.2076 58.3972 99.9355 58.2315 100.746 58.2315C101.556 58.2315 102.284 58.3972 102.929 58.7286C103.575 59.0603 104.084 59.541 104.456 60.1708C104.829 60.8007 105.015 61.5576 105.015 62.4417V62.7069C105.015 63.5909 104.829 64.3478 104.456 64.9776C104.084 65.6076 103.575 66.0883 102.929 66.4197C102.284 66.7512 101.556 66.9169 100.746 66.9169ZM100.746 65.0605C101.381 65.0605 101.906 64.8534 102.322 64.4389C102.738 64.0246 102.946 63.4307 102.946 62.6571V62.4914C102.946 61.7179 102.741 61.1239 102.33 60.7094C101.92 60.2951 101.391 60.0879 100.746 60.0879C100.111 60.0879 99.5852 60.2951 99.1693 60.7094C98.7533 61.1239 98.5453 61.7179 98.5453 62.4914V62.6571C98.5453 63.4307 98.7533 64.0246 99.1693 64.4389C99.5852 64.8534 100.111 65.0605 100.746 65.0605Z" fill="#081D4D"/>
<path d="M108.988 55.0822H106.919V66.685H108.988V55.0822Z" fill="#081D4D"/>
<path d="M115.162 66.9169C114.352 66.9169 113.624 66.7512 112.978 66.4197C112.333 66.0883 111.823 65.6076 111.451 64.9776C111.079 64.3478 110.893 63.5909 110.893 62.7069V62.4417C110.893 61.5576 111.079 60.8007 111.451 60.1708C111.823 59.541 112.333 59.0603 112.978 58.7286C113.624 58.3972 114.352 58.2315 115.162 58.2315C115.972 58.2315 116.7 58.3972 117.346 58.7286C117.992 59.0603 118.501 59.541 118.873 60.1708C119.245 60.8007 119.431 61.5576 119.431 62.4417V62.7069C119.431 63.5909 119.245 64.3478 118.873 64.9776C118.501 65.6076 117.992 66.0883 117.346 66.4197C116.7 66.7512 115.972 66.9169 115.162 66.9169ZM115.162 65.0605C115.797 65.0605 116.323 64.8534 116.738 64.4389C117.154 64.0246 117.362 63.4307 117.362 62.6571V62.4914C117.362 61.7179 117.157 61.1239 116.747 60.7094C116.336 60.2951 115.808 60.0879 115.162 60.0879C114.527 60.0879 114.002 60.2951 113.586 60.7094C113.17 61.1239 112.962 61.7179 112.962 62.4914V62.6571C112.962 63.4307 113.17 64.0246 113.586 64.4389C114.002 64.8534 114.527 65.0605 115.162 65.0605Z" fill="#081D4D"/>
<path d="M120.942 62.6074V62.3422C120.942 61.4803 121.112 60.7426 121.451 60.1294C121.79 59.5161 122.242 59.0464 122.806 58.7204C123.369 58.3945 123.985 58.2315 124.653 58.2315C125.397 58.2315 125.961 58.3641 126.344 58.6293C126.727 58.8945 127.006 59.1707 127.182 59.4581H127.477V58.4636H129.513V68.1436C129.513 68.7071 129.349 69.1575 129.021 69.4946C128.692 69.8315 128.254 70 127.707 70H122.256V68.1767H126.984C127.291 68.1767 127.444 68.0109 127.444 67.6795V65.5412H127.149C127.039 65.7181 126.886 65.8977 126.689 66.0799C126.492 66.2623 126.229 66.4143 125.901 66.5357C125.572 66.6574 125.156 66.7181 124.653 66.7181C123.985 66.7181 123.369 66.5551 122.806 66.2291C122.242 65.9032 121.79 65.4335 121.451 64.8202C121.112 64.207 120.942 63.4693 120.942 62.6074ZM125.244 64.8948C125.879 64.8948 126.41 64.6904 126.837 64.2815C127.264 63.8726 127.477 63.2981 127.477 62.5576V62.3919C127.477 61.6405 127.266 61.063 126.845 60.6597C126.423 60.2564 125.89 60.0548 125.244 60.0548C124.609 60.0548 124.078 60.2564 123.651 60.6597C123.224 61.063 123.011 61.6405 123.011 62.3919V62.5576C123.011 63.2981 123.224 63.8726 123.651 64.2815C124.078 64.6904 124.609 64.8948 125.244 64.8948Z" fill="#081D4D"/>
<path d="M131.812 66.685V58.4636H133.881V66.685H131.812ZM132.846 57.5022C132.474 57.5022 132.159 57.3805 131.902 57.1374C131.645 56.8943 131.516 56.5739 131.516 56.176C131.516 55.7784 131.645 55.4579 131.902 55.2148C132.159 54.9717 132.474 54.8501 132.846 54.8501C133.229 54.8501 133.547 54.9717 133.799 55.2148C134.05 55.4579 134.176 55.7784 134.176 56.176C134.176 56.5739 134.05 56.8943 133.799 57.1374C133.547 57.3805 133.229 57.5022 132.846 57.5022Z" fill="#081D4D"/>
<path d="M138.708 66.9169C138.128 66.9169 137.608 66.8148 137.149 66.6103C136.689 66.4058 136.325 66.1075 136.057 65.7153C135.788 65.323 135.654 64.845 135.654 64.2814C135.654 63.7179 135.788 63.2456 136.057 62.8644C136.325 62.483 136.697 62.1958 137.173 62.0023C137.649 61.809 138.194 61.7124 138.807 61.7124H141.04V61.2481C141.04 60.8614 140.92 60.5437 140.679 60.2951C140.438 60.0465 140.055 59.9222 139.529 59.9222C139.015 59.9222 138.632 60.0409 138.38 60.2785C138.128 60.5161 137.964 60.8227 137.887 61.1984L135.983 60.552C136.114 60.1321 136.325 59.748 136.615 59.4C136.905 59.052 137.294 58.7702 137.781 58.5547C138.268 58.3392 138.862 58.2315 139.562 58.2315C140.635 58.2315 141.483 58.5022 142.107 59.0436C142.731 59.5851 143.043 60.3698 143.043 61.3974V64.4638C143.043 64.7953 143.196 64.9611 143.503 64.9611H144.16V66.685H142.78C142.375 66.685 142.042 66.5855 141.779 66.3866C141.516 66.1876 141.385 65.9224 141.385 65.5909V65.5743H141.073C141.029 65.7069 140.931 65.881 140.777 66.0965C140.624 66.312 140.383 66.5026 140.055 66.6683C139.726 66.8341 139.278 66.9169 138.708 66.9169ZM139.07 65.2264C139.65 65.2264 140.123 65.0632 140.49 64.7373C140.857 64.4113 141.04 63.9776 141.04 63.4362V63.2704H138.955C138.572 63.2704 138.271 63.3533 138.052 63.519C137.833 63.6848 137.723 63.9169 137.723 64.2152C137.723 64.5135 137.838 64.7567 138.068 64.9445C138.298 65.1324 138.632 65.2264 139.07 65.2264Z" fill="#081D4D"/>
</svg>
