<svg width="40" height="40" viewBox="0 0 40 40" fill="none" xmlns="http://www.w3.org/2000/svg">
<path d="M35.8097 23.1285C37.9366 23.1285 39 24.1807 39 26.2852V34.8433C39 36.9478 37.9366 38 35.8097 38H27.5858C25.459 38 24.3955 36.9478 24.3955 34.8433V26.2852C24.3955 21.3747 24.9154 17.0957 25.9552 13.4479C27.0423 9.75342 29.1455 6.52657 32.2649 3.76739C33.3047 2.87883 34.1791 2.76192 34.8881 3.41664L38.0784 6.36289C38.7873 7.01761 38.6219 7.81263 37.5821 8.74795C35.9751 10.1509 34.6517 12.1852 33.6119 14.8509C32.6194 17.4698 32.1231 20.229 32.1231 23.1285H35.8097ZM12.4142 23.1285C14.541 23.1285 15.6045 24.1807 15.6045 26.2852V34.8433C15.6045 36.9478 14.541 38 12.4142 38H4.1903C2.06343 38 1 36.9478 1 34.8433V26.2852C1 21.3747 1.5199 17.0957 2.5597 13.4479C3.64677 9.75342 5.75 6.52657 8.8694 3.76739C9.9092 2.87883 10.7836 2.76192 11.4925 3.41664L14.6828 6.36289C15.3918 7.01761 15.2264 7.81263 14.1866 8.74795C12.5796 10.1509 11.2562 12.1852 10.2164 14.8509C9.22388 17.4698 8.72761 20.229 8.72761 23.1285H12.4142Z" fill="#E0EAFF"/>
</svg>
