<svg width="42" height="42" viewBox="0 0 42 42" fill="none" xmlns="http://www.w3.org/2000/svg">
<path fill-rule="evenodd" clip-rule="evenodd" d="M21.6774 5.35083C13.0403 5.35083 6.02905 12.3621 6.02905 20.9992C6.02905 24.0476 6.87583 26.9605 8.5355 29.5008L6.16454 34.7508C5.96131 35.225 6.02905 35.8008 6.36776 36.2073C6.63873 36.5121 7.01131 36.6815 7.41776 36.6815C7.55325 36.6815 7.65486 36.6815 7.79034 36.6476L14.3613 34.8524C16.6307 36.0718 19.171 36.7153 21.7452 36.7153C30.3823 36.7153 37.3936 29.704 37.3936 21.067C37.3258 12.3621 30.3145 5.35083 21.6774 5.35083ZM21.6774 33.9379C19.3742 33.9379 17.1387 33.3282 15.1742 32.1766C14.971 32.0411 14.7339 31.9734 14.4968 31.9734C14.3613 31.9734 14.2597 31.9734 14.1242 32.0073L9.8226 33.1928L11.3129 29.9073C11.5161 29.467 11.4484 28.925 11.1774 28.5524C9.5855 26.3508 8.73873 23.7428 8.73873 20.9992C8.73873 13.8863 14.5645 8.06051 21.6774 8.06051C28.7903 8.06051 34.6161 13.8524 34.6161 20.9992C34.6161 28.1121 28.8242 33.9379 21.6774 33.9379Z" fill="#2ABB30"/>
<path fill-rule="evenodd" clip-rule="evenodd" d="M27.7064 23.3371C27.0629 22.9306 26.1823 22.4903 25.4371 22.829C24.8613 23.0661 24.4548 24.0145 24.0823 24.4887C23.879 24.7258 23.6419 24.7597 23.3371 24.6581C21.1016 23.7774 19.4081 22.2871 18.1887 20.2548C17.9855 19.95 18.0194 19.679 18.2565 19.3742C18.629 18.9339 19.1032 18.4258 19.2048 17.85C19.3064 17.2742 19.0355 16.5629 18.7984 16.0548C18.4935 15.3774 18.1548 14.429 17.4774 14.0564C16.8677 13.7177 16.0548 13.8871 15.5129 14.3613C14.5645 15.1403 14.0903 16.3597 14.1242 17.5452C14.1242 17.8839 14.1581 18.2226 14.2597 18.5613C14.4629 19.3403 14.8016 20.0855 15.2419 20.7968C15.5468 21.3387 15.8855 21.8468 16.2581 22.321C17.4435 23.9468 18.9339 25.3355 20.6274 26.3855C21.4742 26.8935 22.4226 27.3677 23.371 27.6726C24.4548 28.0113 25.4032 28.3839 26.5548 28.1806C27.7742 27.9435 28.9597 27.1984 29.4339 26.0468C29.5694 25.7081 29.6371 25.3016 29.5694 24.9629C29.3323 24.15 28.3161 23.7097 27.7064 23.3371Z" fill="#2ABB30"/>
</svg>
