<svg width="42" height="42" viewBox="0 0 42 42" fill="none" xmlns="http://www.w3.org/2000/svg">
<path d="M30.345 9.555C29.9297 9.555 29.5236 9.67816 29.1783 9.90891C28.833 10.1397 28.5638 10.4676 28.4049 10.8514C28.2459 11.2351 28.2043 11.6573 28.2854 12.0647C28.3664 12.472 28.5664 12.8462 28.8601 13.1399C29.1538 13.4336 29.528 13.6336 29.9353 13.7146C30.3427 13.7957 30.7649 13.7541 31.1486 13.5951C31.5324 13.4362 31.8603 13.167 32.0911 12.8217C32.3218 12.4764 32.445 12.0703 32.445 11.655C32.445 11.098 32.2238 10.5639 31.8299 10.1701C31.4361 9.77625 30.902 9.555 30.345 9.555ZM38.395 13.79C38.361 12.338 38.089 10.9015 37.59 9.5375C37.145 8.37048 36.4525 7.31374 35.56 6.44C34.6934 5.543 33.6342 4.85481 32.4625 4.4275C31.1021 3.91328 29.664 3.63512 28.21 3.605C26.355 3.5 25.76 3.5 21 3.5C16.24 3.5 15.645 3.5 13.79 3.605C12.336 3.63512 10.8979 3.91328 9.5375 4.4275C8.36793 4.85913 7.30963 5.54673 6.44 6.44C5.543 7.30656 4.85481 8.36577 4.4275 9.5375C3.91328 10.8979 3.63512 12.336 3.605 13.79C3.5 15.645 3.5 16.24 3.5 21C3.5 25.76 3.5 26.355 3.605 28.21C3.63512 29.664 3.91328 31.1021 4.4275 32.4625C4.85481 33.6342 5.543 34.6934 6.44 35.56C7.30963 36.4533 8.36793 37.1409 9.5375 37.5725C10.8979 38.0867 12.336 38.3649 13.79 38.395C15.645 38.5 16.24 38.5 21 38.5C25.76 38.5 26.355 38.5 28.21 38.395C29.664 38.3649 31.1021 38.0867 32.4625 37.5725C33.6342 37.1452 34.6934 36.457 35.56 35.56C36.4564 34.6895 37.1496 33.6318 37.59 32.4625C38.089 31.0985 38.361 29.662 38.395 28.21C38.395 26.355 38.5 25.76 38.5 21C38.5 16.24 38.5 15.645 38.395 13.79ZM35.245 28C35.2323 29.1108 35.0311 30.2115 34.65 31.255C34.3706 32.0166 33.9218 32.7047 33.3375 33.2675C32.7699 33.8459 32.0831 34.2938 31.325 34.58C30.2815 34.9611 29.1809 35.1623 28.07 35.175C26.32 35.2625 25.6725 35.28 21.07 35.28C16.4675 35.28 15.82 35.28 14.07 35.175C12.9166 35.1966 11.768 35.019 10.675 34.65C9.95012 34.3491 9.29487 33.9024 8.75 33.3375C8.16916 32.7753 7.72598 32.0866 7.455 31.325C7.02775 30.2665 6.79078 29.1409 6.755 28C6.755 26.25 6.65 25.6025 6.65 21C6.65 16.3975 6.65 15.75 6.755 14C6.76284 12.8643 6.97016 11.7389 7.3675 10.675C7.67558 9.93634 8.14846 9.2779 8.75 8.75C9.28167 8.14829 9.93875 7.67042 10.675 7.35C11.7417 6.96508 12.866 6.76389 14 6.755C15.75 6.755 16.3975 6.65 21 6.65C25.6025 6.65 26.25 6.65 28 6.755C29.1108 6.76774 30.2115 6.96893 31.255 7.35C32.0503 7.64514 32.764 8.12498 33.3375 8.75C33.911 9.28756 34.3591 9.94478 34.65 10.675C35.0389 11.7406 35.2403 12.8656 35.245 14C35.3325 15.75 35.35 16.3975 35.35 21C35.35 25.6025 35.3325 26.25 35.245 28ZM21 12.0225C19.2252 12.026 17.4912 12.5554 16.0171 13.544C14.5431 14.5325 13.3952 15.9358 12.7184 17.5766C12.0416 19.2173 11.8663 21.0218 12.2146 22.7621C12.563 24.5024 13.4194 26.1004 14.6756 27.3542C15.9319 28.608 17.5315 29.4613 19.2725 29.8063C21.0135 30.1512 22.8177 29.9724 24.4571 29.2924C26.0965 28.6124 27.4975 27.4618 28.4832 25.9858C29.4689 24.5098 29.995 22.7748 29.995 21C29.9973 19.8189 29.7661 18.6491 29.3147 17.5577C28.8632 16.4663 28.2005 15.4749 27.3645 14.6406C26.5286 13.8063 25.5359 13.1454 24.4436 12.6961C23.3514 12.2468 22.1811 12.0179 21 12.0225ZM21 26.8275C19.8474 26.8275 18.7207 26.4857 17.7624 25.8454C16.8041 25.2051 16.0572 24.2949 15.6161 23.2301C15.175 22.1653 15.0596 20.9935 15.2845 19.8631C15.5093 18.7327 16.0643 17.6943 16.8793 16.8793C17.6943 16.0643 18.7327 15.5093 19.8631 15.2845C20.9935 15.0596 22.1653 15.175 23.2301 15.6161C24.2949 16.0572 25.2051 16.8041 25.8454 17.7624C26.4857 18.7207 26.8275 19.8474 26.8275 21C26.8275 21.7653 26.6768 22.5231 26.3839 23.2301C26.091 23.9371 25.6618 24.5795 25.1207 25.1207C24.5795 25.6618 23.9371 26.091 23.2301 26.3839C22.5231 26.6768 21.7653 26.8275 21 26.8275Z" fill="white"/>
</svg>
