<svg width="42" height="42" viewBox="0 0 42 42" fill="none" xmlns="http://www.w3.org/2000/svg">
<path d="M13.0959 9.20426C11.0932 9.42808 9.49007 11.0088 9.25835 12.99C8.63589 18.312 8.63589 23.6883 9.25835 29.0104C9.49007 30.9916 11.0932 32.5722 13.0959 32.796C18.3054 33.3783 23.6947 33.3783 28.9042 32.796C30.9069 32.5722 32.5099 30.9916 32.7416 29.0104C33.1889 25.1863 33.3149 21.3342 33.1195 17.4945C33.1144 17.3953 33.1513 17.2986 33.2217 17.2284L35.0394 15.4105C35.2499 15.2001 35.6094 15.3317 35.6318 15.6284C35.9748 20.1869 35.8806 24.7704 35.349 29.3153C34.9729 32.53 32.3918 35.0476 29.1958 35.4049C23.7925 36.0087 18.2075 36.0087 12.8043 35.4049C9.60818 35.0476 7.0271 32.53 6.65113 29.3153C6.00496 23.7907 6.00496 18.2096 6.65113 12.685C7.0271 9.47034 9.60818 6.95271 12.8043 6.5955C18.2075 5.99161 23.7925 5.99161 29.1958 6.5955C30.3214 6.7213 31.3709 7.11511 32.2744 7.71298C32.4522 7.83061 32.4699 8.08058 32.3192 8.23134L30.9141 9.63638C30.7991 9.75131 30.6208 9.77064 30.4777 9.69387C29.9992 9.43751 29.4676 9.2672 28.9042 9.20426C23.6947 8.62201 18.3054 8.62201 13.0959 9.20426Z" fill="white"/>
<path d="M36.803 10.5531C37.3156 10.0405 37.3156 9.20949 36.803 8.69693C36.2904 8.18436 35.4595 8.18436 34.947 8.69693L20.125 23.5188L15.8031 19.197C15.2905 18.6844 14.4595 18.6844 13.9469 19.197C13.4344 19.7095 13.4344 20.5404 13.9469 21.053L19.197 26.303C19.7095 26.8156 20.5404 26.8156 21.053 26.303L36.803 10.5531Z" fill="white"/>
</svg>
