<svg width="42" height="42" viewBox="0 0 42 42" fill="none" xmlns="http://www.w3.org/2000/svg">
<path fill-rule="evenodd" clip-rule="evenodd" d="M12.25 5.6875C12.9749 5.6875 13.5625 6.27513 13.5625 7V9.91835C18.511 9.47765 23.4891 9.47765 28.4375 9.91835V7C28.4375 6.27513 29.0252 5.6875 29.75 5.6875C30.4749 5.6875 31.0625 6.27513 31.0625 7V10.1788C33.6753 10.5482 35.7396 12.6148 36.0889 15.251L36.2404 16.3936C36.8774 21.1997 36.8225 26.0722 36.077 30.8628C35.7077 33.2358 33.7799 35.0586 31.3898 35.2942L29.302 35.5001C23.7808 36.0446 18.2193 36.0446 12.6979 35.5001L10.6102 35.2942C8.22011 35.0586 6.29221 33.2358 5.92294 30.8628C5.17751 26.0722 5.12249 21.1997 5.75956 16.3936L5.91102 15.251C6.26046 12.6148 8.32468 10.5481 10.9375 10.1788V7C10.9375 6.27513 11.5252 5.6875 12.25 5.6875ZM13.0291 12.6049C18.3302 12.0821 23.6698 12.0821 28.9709 12.6049L30.5554 12.7612C32.0723 12.9107 33.2864 14.0849 33.4866 15.5959L33.6382 16.7386C33.691 17.1377 33.739 17.5374 33.7819 17.9375H8.21815C8.26101 17.5374 8.30887 17.1378 8.36179 16.7386L8.51326 15.5959C8.71354 14.0849 9.92773 12.9107 11.4445 12.7612L13.0291 12.6049ZM8.0095 20.5625C7.83769 23.8667 8.00696 27.1831 8.51672 30.4591C8.70194 31.6494 9.66896 32.5636 10.8678 32.6819L12.9555 32.8877C18.3056 33.4154 23.6945 33.4154 29.0444 32.8877L31.1322 32.6819C32.3309 32.5636 33.298 31.6494 33.4833 30.4591C33.9931 27.1831 34.1623 23.8667 33.9905 20.5625H8.0095Z" fill="#1D50BF"/>
</svg>
