<svg width="42" height="42" viewBox="0 0 42 42" fill="none" xmlns="http://www.w3.org/2000/svg">
<path fill-rule="evenodd" clip-rule="evenodd" d="M13.5625 13.125C13.5625 9.01738 16.8924 5.6875 21 5.6875C25.1076 5.6875 28.4375 9.01738 28.4375 13.125C28.4375 17.2326 25.1076 20.5625 21 20.5625C16.8924 20.5625 13.5625 17.2326 13.5625 13.125ZM21 8.3125C18.3421 8.3125 16.1875 10.4671 16.1875 13.125C16.1875 15.7829 18.3421 17.9375 21 17.9375C23.6579 17.9375 25.8125 15.7829 25.8125 13.125C25.8125 10.4671 23.6579 8.3125 21 8.3125Z" fill="#1D50BF"/>
<path fill-rule="evenodd" clip-rule="evenodd" d="M14 25.8125C11.8254 25.8125 10.0625 27.5755 10.0625 29.75V31.8295C10.0625 31.8612 10.0854 31.8882 10.1167 31.8932C17.3245 33.0701 24.6755 33.0701 31.8832 31.8932C31.9146 31.8882 31.9375 31.8612 31.9375 31.8295V29.75C31.9375 27.5755 30.1745 25.8125 28 25.8125H27.4034C27.3574 25.8125 27.3116 25.8198 27.2676 25.834L25.753 26.3288C22.6646 27.3371 19.3354 27.3371 16.247 26.3288L14.7323 25.834C14.6885 25.8198 14.6426 25.8125 14.5965 25.8125H14ZM7.4375 29.75C7.4375 26.1256 10.3756 23.1875 14 23.1875H14.5965C14.9194 23.1875 15.2402 23.2386 15.5471 23.3387L17.0618 23.8334C19.6208 24.6689 22.3792 24.6689 24.9382 23.8334L26.4528 23.3387C26.7598 23.2386 27.0805 23.1875 27.4034 23.1875H28C31.6244 23.1875 34.5625 26.1256 34.5625 29.75V31.8295C34.5625 33.1476 33.6072 34.2715 32.3062 34.4839C24.8183 35.7065 17.1817 35.7065 9.69372 34.4839C8.39279 34.2715 7.4375 33.1476 7.4375 31.8295V29.75Z" fill="#1D50BF"/>
</svg>
