<svg width="42" height="42" viewBox="0 0 42 42" fill="none" xmlns="http://www.w3.org/2000/svg">
<path fill-rule="evenodd" clip-rule="evenodd" d="M10.2204 17.2483C13.3483 24.059 18.9142 29.4739 25.8331 32.4079L25.855 32.4172L27.1917 33.0129C28.8939 33.7714 30.8945 33.2327 31.9858 31.7223L34.216 28.6358C34.3521 28.4473 34.317 28.1852 34.136 28.0391L30.2428 24.8982C30.0492 24.7421 29.7645 24.7785 29.6165 24.9781L28.1013 27.0228C27.7333 27.5195 27.0686 27.692 26.5057 27.4372C21.332 25.0957 17.1744 20.9383 14.833 15.7646C14.5782 15.2015 14.7507 14.5369 15.2473 14.1689L17.292 12.6537C17.4918 12.5056 17.5282 12.221 17.372 12.0275L14.2307 8.13365C14.0847 7.95266 13.8226 7.91752 13.6341 8.05362L10.5308 10.2939C9.01043 11.3915 8.47502 13.409 9.25107 15.116L10.2194 17.246C10.2198 17.2468 10.2201 17.2475 10.2204 17.2483ZM24.7973 34.82C17.2793 31.6287 11.2324 25.7434 7.83385 18.3413L7.8318 18.3369L6.86143 16.2024C5.568 13.3573 6.46036 9.99484 8.99435 8.16555L12.0976 5.92527C13.4173 4.97255 15.2517 5.21862 16.2737 6.48543L19.415 10.3793C20.5081 11.7341 20.2534 13.7262 18.8548 14.7627L17.6832 15.6309C19.6625 19.4711 22.799 22.6078 26.6392 24.5868L27.5075 23.4152C28.5439 22.0168 30.5361 21.7622 31.8909 22.8552L35.7842 25.9959C37.0513 27.0183 37.2972 28.8535 36.3436 30.1732L34.1134 33.2597C32.2947 35.777 28.9602 36.6748 26.1235 35.4108L24.7973 34.82Z" fill="white"/>
</svg>
