<svg width="42" height="42" viewBox="0 0 42 42" fill="none" xmlns="http://www.w3.org/2000/svg">
<path fill-rule="evenodd" clip-rule="evenodd" d="M21 10.9375C17.8589 10.9375 15.3125 13.4839 15.3125 16.625C15.3125 19.7661 17.8589 22.3125 21 22.3125C24.1411 22.3125 26.6875 19.7661 26.6875 16.625C26.6875 13.4839 24.1411 10.9375 21 10.9375ZM17.9375 16.625C17.9375 14.9336 19.3086 13.5625 21 13.5625C22.6914 13.5625 24.0625 14.9336 24.0625 16.625C24.0625 18.3164 22.6914 19.6875 21 19.6875C19.3086 19.6875 17.9375 18.3164 17.9375 16.625Z" fill="white"/>
<path fill-rule="evenodd" clip-rule="evenodd" d="M21 3.9375C13.9929 3.9375 8.3125 9.6179 8.3125 16.625C8.3125 19.1942 9.07618 21.585 10.3889 23.583L5.86334 31.4214C5.60598 31.8673 5.63293 32.4223 5.93229 32.841C6.23163 33.2598 6.7481 33.4649 7.25317 33.3655L11.8274 32.4664L13.3358 36.8774C13.5024 37.3644 13.9382 37.7092 14.4505 37.759C14.9628 37.8089 15.457 37.5548 15.7144 37.1089L20.2289 29.2894C20.4841 29.3048 20.7412 29.3125 21 29.3125C21.2588 29.3125 21.5159 29.3048 21.771 29.2894L26.2857 37.1089C26.5433 37.5552 27.0382 37.8094 27.5509 37.7589C28.0637 37.7085 28.4995 37.3627 28.6652 36.8748L30.1658 32.4546L34.744 33.365C35.2494 33.4656 35.7669 33.261 36.067 32.8423C36.3671 32.4233 36.3942 31.8677 36.1366 31.4214L31.6111 23.583C32.9238 21.585 33.6875 19.1942 33.6875 16.625C33.6875 9.6179 28.0072 3.9375 21 3.9375ZM10.9375 16.625C10.9375 11.0676 15.4426 6.5625 21 6.5625C26.5573 6.5625 31.0625 11.0676 31.0625 16.625C31.0625 22.1823 26.5573 26.6875 21 26.6875C15.4426 26.6875 10.9375 22.1823 10.9375 16.625ZM17.4716 28.8155C15.4539 28.2324 13.6429 27.1621 12.1746 25.74L9.58072 30.2328L12.4454 29.6697C13.0895 29.543 13.7281 29.9117 13.9405 30.5328L14.8851 33.2953L17.4716 28.8155ZM27.1107 33.288L24.5285 28.8155C26.5461 28.2324 28.357 27.1621 29.8254 25.74L32.4151 30.2255L29.5489 29.6557C28.903 29.5272 28.262 29.8973 28.0502 30.521L27.1107 33.288Z" fill="white"/>
</svg>
