<svg width="42" height="42" viewBox="0 0 42 42" fill="none" xmlns="http://www.w3.org/2000/svg">
<path fill-rule="evenodd" clip-rule="evenodd" d="M18.3512 7.19982C19.5314 5.16585 22.4686 5.16586 23.6488 7.19982L27.2632 13.4287C27.5964 14.0029 28.1722 14.3947 28.8286 14.4938L34.8304 15.4003C37.4467 15.7955 38.3644 19.0988 36.3268 20.7867L31.9538 24.4099C31.34 24.9182 31.0515 25.7204 31.2006 26.5036L32.4256 32.9364C32.9054 35.4564 30.2599 37.4143 27.9902 36.219L22.0192 33.0752C21.3811 32.7392 20.6188 32.7392 19.9808 33.0752L14.0098 36.219C11.74 37.4143 9.09464 35.4564 9.57449 32.9364L10.7995 26.5036C10.9486 25.7204 10.6599 24.9182 10.0461 24.4099L5.67307 20.7867C3.63557 19.0988 4.55328 15.7955 7.16952 15.4003L13.1714 14.4938C13.8278 14.3947 14.4036 14.0029 14.7367 13.4287L18.3512 7.19982ZM21.3783 8.51727C21.2098 8.2267 20.7902 8.2267 20.6216 8.51727L17.0072 14.7462C16.2743 16.0093 15.0074 16.8713 13.5634 17.0894L7.56155 17.9959C7.1878 18.0523 7.05669 18.5243 7.34777 18.7654L11.7208 22.3884C13.0712 23.5072 13.7062 25.2719 13.3781 26.9944L12.1532 33.4274C12.0846 33.7874 12.4625 34.0672 12.7868 33.8964L18.7579 30.7524C20.1612 30.0134 21.8388 30.0134 23.2421 30.7524L29.2133 33.8964C29.5375 34.0672 29.9154 33.7874 29.8468 33.4274L28.6219 26.9944C28.2938 25.2719 28.9287 23.5072 30.2792 22.3884L34.6523 18.7654C34.9433 18.5243 34.8122 18.0523 34.4384 17.9959L28.4366 17.0894C26.9925 16.8713 25.7257 16.0093 24.9928 14.7462L21.3783 8.51727Z" fill="#1D50BF"/>
</svg>
