<svg width="42" height="42" viewBox="0 0 42 42" fill="none" xmlns="http://www.w3.org/2000/svg">
<path d="M29.75 6.125C29.75 5.89294 29.6578 5.67038 29.4937 5.50628C29.3296 5.34219 29.1071 5.25 28.875 5.25H24.5C22.297 5.14026 20.14 5.90694 18.5005 7.38252C16.861 8.8581 15.8721 10.9226 15.75 13.125V17.85H11.375C11.1429 17.85 10.9204 17.9422 10.7563 18.1063C10.5922 18.2704 10.5 18.4929 10.5 18.725V23.275C10.5 23.5071 10.5922 23.7296 10.7563 23.8937C10.9204 24.0578 11.1429 24.15 11.375 24.15H15.75V35.875C15.75 36.1071 15.8422 36.3296 16.0063 36.4937C16.1704 36.6578 16.3929 36.75 16.625 36.75H21.875C22.1071 36.75 22.3296 36.6578 22.4937 36.4937C22.6578 36.3296 22.75 36.1071 22.75 35.875V24.15H27.335C27.5296 24.1528 27.7195 24.0906 27.8748 23.9734C28.0301 23.8561 28.1419 23.6904 28.1925 23.5025L29.4525 18.9525C29.4873 18.8232 29.492 18.6877 29.4662 18.5563C29.4404 18.4249 29.3847 18.3012 29.3036 18.1947C29.2225 18.0882 29.118 18.0017 28.9981 17.942C28.8783 17.8822 28.7464 17.8508 28.6125 17.85H22.75V13.125C22.7935 12.6918 22.997 12.2904 23.3205 11.9992C23.6441 11.708 24.0647 11.5478 24.5 11.55H28.875C29.1071 11.55 29.3296 11.4578 29.4937 11.2937C29.6578 11.1296 29.75 10.9071 29.75 10.675V6.125Z" fill="white"/>
</svg>
