<svg width="42" height="42" viewBox="0 0 42 42" fill="none" xmlns="http://www.w3.org/2000/svg">
<path fill-rule="evenodd" clip-rule="evenodd" d="M12.6875 17.5C12.6875 12.9091 16.4091 9.1875 21 9.1875C25.5908 9.1875 29.3125 12.9091 29.3125 17.5C29.3125 22.091 25.5908 25.8125 21 25.8125C16.4091 25.8125 12.6875 22.091 12.6875 17.5ZM21 11.8125C17.8589 11.8125 15.3125 14.3589 15.3125 17.5C15.3125 20.6411 17.8589 23.1875 21 23.1875C24.1411 23.1875 26.6875 20.6411 26.6875 17.5C26.6875 14.3589 24.1411 11.8125 21 11.8125Z" fill="#1D50BF"/>
<path fill-rule="evenodd" clip-rule="evenodd" d="M6.16768 15.4995C6.78776 7.97692 13.074 2.1875 20.6221 2.1875H21.378C28.9261 2.1875 35.2123 7.97692 35.8323 15.4995C36.1655 19.5405 34.9173 23.5531 32.3505 26.692L23.9628 36.9502C22.4315 38.8229 19.5686 38.8229 18.0373 36.9502L9.64948 26.692C7.08282 23.5531 5.83459 19.5405 6.16768 15.4995ZM20.6221 4.8125C14.4402 4.8125 9.29164 9.55409 8.78381 15.7151C8.50657 19.0783 9.54546 22.4178 11.6816 25.0304L20.0694 35.2886C20.5505 35.8768 21.4496 35.8768 21.9307 35.2886L30.3185 25.0304C32.4547 22.4178 33.4935 19.0783 33.2163 15.7151C32.7084 9.55409 27.5599 4.8125 21.378 4.8125H20.6221Z" fill="#1D50BF"/>
</svg>
